PathFileType	4	(X/Y/Z)	 s02c0303.trc
DataRate	CameraRate	NumFrames	NumMarkers	Units	OrigDataRate	OrigDataStartFrame	OrigNumFrames
200	200	4	50	mm	200	251	2000
Frame#	Time	racr			lacr			c7			jug			rlel			rdr			llel			ldr			s2			lic			ric			lasi			rasi			rpsi			lpsi			rgt			lgt			rth1			rth2			rth3			rth4			rlfc			rmfc			rsh1			rsh2			rsh3			rsh4			rlmal			rmmal			rtoe			rmt5			rmt1			lth1			lth2			lth4			lth3			llfc			lmfc			lsh1			lsh2			lsh3			lsh4			llmal			lmmal			lcal			ltoe			lmt5			SBIKE			LBIKE			RBIKE			
		X1	Y1	Z1	X2	Y2	Z2	X3	Y3	Z3	X4	Y4	Z4	X5	Y5	Z5	X6	Y6	Z6	X7	Y7	Z7	X8	Y8	Z8	X9	Y9	Z9	X10	Y10	Z10	X11	Y11	Z11	X12	Y12	Z12	X13	Y13	Z13	X14	Y14	Z14	X15	Y15	Z15	X16	Y16	Z16	X17	Y17	Z17	X18	Y18	Z18	X19	Y19	Z19	X20	Y20	Z20	X21	Y21	Z21	X22	Y22	Z22	X23	Y23	Z23	X24	Y24	Z24	X25	Y25	Z25	X26	Y26	Z26	X27	Y27	Z27	X28	Y28	Z28	X29	Y29	Z29	X30	Y30	Z30	X31	Y31	Z31	X32	Y32	Z32	X33	Y33	Z33	X34	Y34	Z34	X35	Y35	Z35	X36	Y36	Z36	X37	Y37	Z37	X38	Y38	Z38	X39	Y39	Z39	X40	Y40	Z40	X41	Y41	Z41	X42	Y42	Z42	X43	Y43	Z43	X44	Y44	Z44	X45	Y45	Z45	X46	Y46	Z46	X47	Y47	Z47	X48	Y48	Z48	X49	Y49	Z49	X50	Y50	Z50	
251	1.2550	505.368717	1287.665049	-108.972581	537.335710	1284.132898	-443.632633	528.857721	1304.873710	-285.252524	NaN	NaN	NaN	549.977775	1012.623210	-64.090705	721.119252	866.700099	-109.565507	567.549486	1016.311517	-546.980413	714.376142	843.265283	-491.045921	4.632670	1130.685379	-319.707457	143.210471	1111.103166	-457.973467	128.139588	1115.447647	-169.822036	186.102558	1070.806136	-430.497628	177.408401	1093.670309	-205.283470	19.668846	1157.643321	-277.956868	32.228684	1165.922041	-364.997726	104.042950	1033.193650	-132.613939	88.902862	1022.695893	-494.830450	187.456261	1009.112941	-129.525292	272.163788	985.282611	-132.828229	333.678107	930.018780	-110.189300	288.279793	1009.735326	-157.128180	438.009573	823.727731	-142.926822	431.846572	805.425287	-251.675439	430.416809	710.435603	-125.002488	423.883999	622.910712	-144.099494	379.783963	548.757281	-138.510484	433.654302	622.772416	-182.294226	328.773279	438.746136	-143.990809	333.062565	460.253100	-225.677473	544.976778	423.639459	-184.361269	442.125592	385.507716	-123.152353	463.868509	409.136393	-231.791556	200.063344	933.264158	-505.751313	272.291017	884.659741	-502.246165	295.895356	905.179145	-481.977544	309.019265	802.759747	-500.172825	363.033308	718.871887	-475.296098	356.512326	691.040518	-368.484618	313.688910	627.082865	-495.090764	277.658856	550.227846	-478.308352	206.413175	495.536924	-484.633136	292.278852	542.259305	-441.002671	126.078182	424.580534	-471.645972	140.070200	410.506799	-395.353617	47.436982	423.035520	-430.207317	245.248452	215.082594	-439.883490	152.173005	271.801992	-498.701289	-125.772704	871.695893	-307.703907	37.259299	86.683991	-514.207395	33.576385	83.415036	-114.288630	
252	1.2600	505.688402	1286.958955	-108.186674	538.332791	1283.473145	-443.078336	529.525182	1304.105183	-284.796001	NaN	NaN	NaN	549.095800	1011.523946	-64.187197	720.905246	866.673898	-109.648477	567.292758	1015.853006	-547.343179	714.094047	843.146155	-491.079303	4.789857	1131.440248	-319.672341	143.300461	1111.565277	-458.073376	128.297954	1115.878619	-169.854732	186.061389	1071.252156	-430.610472	177.529573	1094.027357	-205.307829	19.962324	1158.357517	-278.040357	32.452539	1166.666002	-364.953810	104.088868	1033.631948	-132.658109	88.967151	1023.294412	-494.893280	187.442047	1009.160315	-129.496056	272.008910	984.869057	-132.764043	333.226146	929.244299	-110.069564	288.178144	1009.049358	-157.193363	436.857114	822.347619	-142.742208	430.650568	804.165853	-251.571756	429.372443	709.108967	-124.804339	423.215925	621.461190	-143.939143	379.306306	547.305907	-138.472595	432.998809	621.471366	-182.115986	328.729233	437.003947	-144.020818	333.128161	458.610041	-225.823266	544.957725	422.955769	-184.214580	442.314664	384.233831	-123.064111	463.949966	407.994794	-231.555488	200.408184	934.127024	-505.464492	272.671986	885.598443	-501.853309	296.243311	906.148558	-481.601763	309.475378	803.728397	-499.656480	363.388028	719.640936	-474.891099	356.511548	691.954834	-368.057580	313.851739	627.992563	-494.725092	277.581118	551.173858	-477.957756	206.209547	496.733241	-484.403369	292.124134	543.266589	-440.699763	125.491702	425.855594	-471.599341	139.672164	411.519923	-395.223891	46.801304	423.945395	-430.166473	244.937671	216.389935	-439.865640	151.811740	272.873235	-498.586154	-125.739424	871.700086	-307.597493	37.278274	86.696118	-514.215330	33.570818	83.421908	-114.297467	
253	1.2650	505.986811	1286.400466	-107.188346	539.234956	1282.819864	-442.755598	530.177464	1303.401417	-284.226839	NaN	NaN	NaN	548.105712	1010.426024	-64.378485	720.688744	866.666607	-109.762912	567.025319	1015.446199	-547.842474	713.842193	843.053870	-491.122256	5.004136	1132.064053	-319.656838	143.368105	1112.183605	-458.172061	128.472560	1116.282647	-169.847813	185.997904	1071.653138	-430.569519	177.689592	1094.289902	-205.275401	20.259264	1159.044553	-278.005083	32.725495	1167.431242	-365.011216	104.204989	1033.965575	-132.749448	89.071709	1023.903934	-494.949455	187.462101	1009.188808	-129.523031	271.892865	984.431286	-132.756842	332.818840	928.535038	-110.019293	288.182492	1008.507767	-157.162684	435.735331	821.117816	-142.665334	429.485703	802.785211	-251.367474	428.307620	707.759796	-124.686225	422.553272	620.152588	-143.774545	378.854801	545.726980	-138.408988	432.383757	620.200767	-181.956267	328.632222	435.361144	-144.031790	333.088035	457.008276	-225.870187	545.022925	422.090017	-184.135968	442.464065	383.018998	-122.979299	464.111343	406.964361	-231.635927	200.758919	934.960007	-505.180117	273.060406	886.540793	-501.405318	296.536484	907.103689	-481.019757	310.012485	804.716152	-499.129041	363.814894	720.656421	-474.402785	356.571880	692.827471	-367.649406	314.090753	628.887268	-494.300201	277.552399	552.350592	-477.730839	206.055597	497.957352	-484.259527	292.014827	544.288129	-440.385270	124.902155	427.147675	-471.593844	139.252786	412.521347	-395.161286	46.121109	425.039134	-430.242150	244.637173	217.571774	-439.867265	151.453092	273.953113	-498.593917	-125.719239	871.738002	-307.566554	37.265735	86.715672	-514.204225	33.566008	83.436630	-114.289465	
254	1.2700	506.395142	1285.811401	-106.498444	540.144590	1282.165935	-442.218147	530.818744	1302.693062	-283.747786	NaN	NaN	NaN	547.189143	1009.408590	-64.554100	720.476019	866.669862	-109.852629	566.725768	1015.082288	-548.359001	713.613526	842.992194	-491.218756	5.209876	1132.652031	-319.624109	143.475711	1112.488797	-458.307067	128.679794	1116.561607	-169.892867	185.998370	1072.078410	-430.632891	177.878680	1094.494567	-205.269407	20.524787	1159.662257	-278.030320	33.012655	1168.136637	-364.949280	104.317273	1034.396414	-132.748185	89.157452	1024.561732	-495.006125	187.538414	1009.172654	-129.536759	271.843175	983.965961	-132.758017	332.587872	928.139706	-109.563821	288.233267	1007.968906	-157.086408	434.690725	819.785888	-142.559763	428.400887	801.347604	-251.059102	427.279161	706.422050	-124.662602	421.901833	618.782194	-143.679562	378.460976	544.201296	-138.333149	431.771349	618.815676	-181.817661	328.620172	433.689256	-144.055266	333.000316	455.419083	-225.853841	545.085552	421.186355	-184.022468	442.646501	381.693701	-122.870791	464.209666	405.789583	-231.410180	201.142824	935.836152	-504.928171	273.517049	887.495020	-501.005840	296.882193	908.169612	-480.637721	310.507660	805.742959	-498.653217	364.208479	721.621081	-474.001538	356.689833	693.746433	-367.271177	314.357799	629.886993	-493.909476	277.543530	553.372278	-477.374296	205.915235	499.298904	-484.070998	291.894088	545.407388	-439.958486	124.353344	428.495183	-471.639860	138.707499	413.735892	-395.049861	45.480777	426.040894	-430.206628	244.337354	218.970379	-439.872185	151.043073	275.115433	-498.482297	-125.688881	871.732244	-307.492981	37.271843	86.748127	-514.203484	33.996454	83.179649	-114.086051	
